<svg width="56" height="57" viewBox="0 0 56 57" fill="none" xmlns="http://www.w3.org/2000/svg">
<path d="M8.3488 39.2547C6.81288 37.8238 5.83127 35.9509 4.5725 34.2991C4.31843 33.9734 4.07592 33.636 3.8334 33.287C3.42921 32.7054 3.59089 32.1703 4.27224 32.0307C4.27974 32.0291 4.28727 32.0275 4.29483 32.026M4.29483 32.026C4.67147 31.9497 5.12231 31.9636 5.47327 32.1005C7.42494 32.8101 8.86848 34.1827 10.1388 35.7764C10.6469 36.4162 11.1551 37.0561 11.7094 37.6493C12.3907 38.3938 13.2107 38.8126 14.2731 38.9289C15.7397 39.0802 17.2064 39.3826 18.6268 39.7898C20.8787 40.4412 22.3916 42.1163 23.7543 43.9194C25.0477 45.6294 25.9485 47.5372 26.0524 49.7358C26.0755 50.2477 25.96 50.7712 25.9369 51.2946C25.88 52.5224 25.8455 53.7614 25.8113 54.9895L25.8099 55.0404C25.7983 55.2614 25.8099 55.4824 25.8099 55.75H16.8137C16.8137 54.8892 16.756 54.0632 16.8253 53.2373C16.987 51.2365 15.9938 49.9801 14.4001 48.9913C11.8826 47.4442 9.38815 45.8505 6.88217 44.2917C5.94675 43.71 5.27695 42.8957 4.78037 41.9069C3.27908 38.9522 1.7778 35.8928 0.75 32.7286V29.5994C0.81929 28.9712 0.877032 28.3314 0.946322 27.7033C1.0849 26.319 1.20038 24.9346 1.39671 23.562C1.4429 23.2479 1.73161 22.736 1.91638 22.736C2.27438 22.736 2.72476 22.9454 2.96728 23.213C3.55625 23.8528 3.62553 24.7253 3.72947 25.5512C3.96025 27.469 4.08726 30.1185 4.29483 32.026ZM4.29483 32.026C4.295 32.0275 4.29517 32.0291 4.29534 32.0307M47.1512 39.2547C48.6871 37.8238 49.6687 35.9509 50.9275 34.2991C51.1816 33.9734 51.4241 33.636 51.6666 33.287C52.0708 32.7054 51.9091 32.1703 51.2278 32.0307C51.2203 32.0291 51.2127 32.0275 51.2052 32.026M51.2052 32.026C50.8285 31.9497 50.3777 31.9636 50.0267 32.1005C48.0751 32.8101 46.6315 34.1827 45.3612 35.7764C44.8531 36.4162 44.345 37.0561 43.7906 37.6493C43.1093 38.3938 42.2894 38.8126 41.2269 38.9289C39.7603 39.0802 38.2936 39.3826 36.8732 39.7898C34.6213 40.4412 33.1084 42.1163 31.7457 43.9194C30.4523 45.6294 29.5515 47.5372 29.4476 49.7358C29.4245 50.2477 29.54 50.7712 29.5631 51.2946C29.62 52.5222 29.6545 53.7611 29.6887 54.989L29.6901 55.0404C29.7017 55.2614 29.6901 55.4824 29.6901 55.75H38.6863C38.6863 54.8892 38.744 54.0632 38.6747 53.2373C38.513 51.2365 39.5062 49.9801 41.0999 48.9913C43.6174 47.4442 46.1119 45.8505 48.6178 44.2917C49.5533 43.71 50.2231 42.8957 50.7196 41.9069C52.2209 38.9522 53.7222 35.8928 54.75 32.7286V29.5994C54.6807 28.9712 54.623 28.3314 54.5537 27.7033C54.4151 26.319 54.2996 24.9346 54.1033 23.562C54.0571 23.2479 53.7684 22.736 53.5836 22.736C53.2256 22.736 52.7752 22.9454 52.5327 23.213C51.9438 23.8528 51.8745 24.7253 51.7705 25.5512C51.5398 27.469 51.4127 30.1185 51.2052 32.026ZM51.2052 32.026C51.205 32.0275 51.2048 32.0291 51.2047 32.0307M27.9348 36.5326C27.9232 36.5442 27.9117 36.5442 27.9001 36.5558M27.9348 36.5326C35.4527 31.3211 37.1965 25.5047 36.5036 20.3164M27.9348 36.5326C27.9232 36.5326 27.9117 36.5442 27.9117 36.5558M27.9348 36.5326C35.4412 31.3327 37.1965 25.5163 36.5036 20.3164M27.9348 36.5326C27.9348 36.5442 27.9348 36.5442 27.9348 36.5558C27.9232 36.5558 27.9232 36.5558 27.9117 36.5558M27.8886 36.5558C27.9001 36.5558 27.9001 36.5558 27.9001 36.5558C27.9117 36.5442 27.9232 36.5326 27.9348 36.5326M27.9001 36.5558H27.8886M27.8886 36.5558C27.877 36.5558 27.8655 36.5558 27.8424 36.5675C20.2667 31.3443 18.5113 25.5047 19.2273 20.2815C20.3706 11.9175 27.8655 5.17047 27.8655 5.17047C27.8655 5.17047 35.3719 11.9408 36.5036 20.3164M27.8886 36.5558C27.877 36.5558 27.877 36.5675 27.8655 36.5791L27.8539 36.5675M27.8886 36.5558C27.877 36.5675 27.8655 36.5675 27.8539 36.5675M27.8886 36.5558C27.9001 36.5558 27.9117 36.5558 27.9117 36.5558M36.5036 20.3164C40.9151 18.7925 45.2804 19.0368 45.2804 19.0368C45.2804 19.0368 46.4352 40.0457 27.9117 36.5558M27.8539 36.5675C9.38815 39.9992 10.543 19.0368 10.543 19.0368C10.543 19.0368 14.8505 18.7925 19.2389 20.2931C18.5229 25.5047 20.2782 31.3443 27.8539 36.5675ZM27.8655 42.0698V11.4522M33.0622 24.0157L27.8655 29.2504L22.6687 24.0157M30.9835 19.8278L27.8655 22.9687L24.7474 19.8278M29.9442 14.5931L27.8655 16.687L25.7868 14.5931M2.63238 20.6421C2.67857 20.456 2.72477 20.2699 2.78251 20.0838M3.47541 17.8735C7.13623 7.88092 16.6751 0.75 27.8655 0.75C39.46 0.75 49.2876 8.4044 52.6251 18.967M52.9485 20.0838C52.9947 20.2699 53.0524 20.456 53.0986 20.6421" stroke="white" stroke-width="1.5" stroke-miterlimit="10" stroke-linecap="round" stroke-linejoin="round"/>
</svg>
