<svg width="68" height="54" viewBox="0 0 68 54" fill="none" xmlns="http://www.w3.org/2000/svg">
<path d="M0.901568 20.3072C0.995893 36.4788 12.8761 49.8751 28.4337 52.4524C28.4891 52.4594 28.5551 52.47 28.6117 52.4805C30.3379 52.7605 32.1006 52.8999 33.9022 52.8999C35.8712 52.8999 37.7954 52.7312 39.6713 52.3938C55.0591 49.7063 66.7778 36.4026 66.9004 20.3646C61.9613 20.8801 57.264 22.2004 52.9463 24.1873C47.9211 26.4916 43.3959 29.7039 39.5781 33.6109M39.5781 33.6109C37.5584 35.6822 35.7391 37.9385 34.1545 40.3659C32.9448 42.2122 31.8659 44.1534 30.9368 46.1777M39.5781 33.6109C38.2765 30.4349 36.3629 27.5132 34.1651 24.8808C31.6289 21.8548 28.7143 19.213 25.9235 17.0188C25.5556 16.7388 25.1889 16.4576 24.8293 16.1858C19.3243 12.0352 14.5715 9.72023 14.5715 9.72023C14.5055 10.8929 14.469 12.0621 14.469 13.2535C14.469 16.9918 14.7979 20.6645 15.4381 24.2236M31.2033 36.3628C30.4169 35.4115 29.5951 34.4931 28.7332 33.6097C24.9425 29.7227 20.4468 26.5279 15.4381 24.2224C10.9507 22.1441 6.04815 20.7934 0.900389 20.3049M42.3866 16.966C41.862 6.94491 34.158 0.899905 34.158 0.899905C34.158 0.899905 26.4529 7.00112 25.9258 17.0246M34.1568 0.899905L34.1568 13.1363M34.1568 15.0869L34.1568 20.1127M34.1651 24.8796C42.1119 15.3974 53.794 9.72022 53.794 9.72022C53.86 10.8929 53.8978 12.0621 53.8978 13.2547C53.8978 16.9918 53.5865 20.627 52.9451 24.1873" stroke="#99582A" stroke-width="1.8" stroke-miterlimit="10" stroke-linecap="round" stroke-linejoin="round"/>
</svg>
