<svg width="15" height="19" viewBox="0 0 15 19" fill="none" xmlns="http://www.w3.org/2000/svg">
<path d="M5.75781 8.74298L6.79181 9.92398C6.88681 10.033 7.05781 10.024 7.14181 9.90798L9.24181 7.00098" stroke="#A85405" stroke-linecap="round" stroke-linejoin="round"/>
<path d="M6.96702 18.3209C7.12023 18.4375 7.30747 18.5007 7.50002 18.5007C7.69257 18.5007 7.8798 18.4375 8.03302 18.3209C9.66802 17.0939 14.5 13.0869 14.5 8.51692V3.58692C14.501 3.45975 14.4549 3.33672 14.3705 3.2416C14.2861 3.14648 14.1694 3.08602 14.043 3.07192C12.0407 2.86692 10.1216 2.1635 8.46102 1.02592L7.85102 0.608924C7.74771 0.537977 7.62534 0.5 7.50002 0.5C7.3747 0.5 7.25232 0.537977 7.14902 0.608924L6.53902 1.02592C4.87847 2.1635 2.95938 2.86692 0.957017 3.07192C0.830627 3.08602 0.713952 3.14648 0.629544 3.2416C0.545135 3.33672 0.498986 3.45975 0.500017 3.58692V8.51692C0.500017 13.0869 5.33202 17.0939 6.96702 18.3189" stroke="#A85405" stroke-linecap="round" stroke-linejoin="round"/>
</svg>
